# xmcd
# 
# Track frame offsets:
#     150
#     18150
#     34510
#     53430
#     69080
#     87302
#     111640
#     131950
#     153202
#     170052
#     184265
#     204657
# 
# Disc length: 3009
# 
# Revision: 4
# Processed by: cddbd v1.5.2PL0 Copyright (c) Steve Scherf et al.
# Submitted via: fre:ac v1.0.27
# 
DISCID=9e0bbf0c
DTITLE=Tommy Castro - Can't Keep A Good Man Down
DYEAR=1997
DGENRE=Blues Rock
TTITLE0=Can't Keep A Good Man Down
TTITLE1=You Knew The Job Was Dangerous
TTITLE2=Suitcase Full Of Blues
TTITLE3=You Gotta Do What You Gotta Do
TTITLE4=I Want To Show You
TTITLE5=My Time After Awhile
TTITLE6=Take The Highway Down
TTITLE7=High On The Hog
TTITLE8=You Only Go Around Once
TTITLE9=Nobody Loves Me Like My Baby
TTITLE10=Hycodan
TTITLE11=Can't You See What You're Doing To Me
EXTD=YEAR: 1997
EXTT0=
EXTT1=
EXTT2=
EXTT3=
EXTT4=
EXTT5=
EXTT6=
EXTT7=
EXTT8=
EXTT9=
EXTT10=
EXTT11=
PLAYORDER=
